<?xml version="1.0" encoding="UTF-8"?>
<svg width="220px" height="14px" viewBox="0 0 220 14" version="1.1" xmlns="http://www.w3.org/2000/svg" xmlns:xlink="http://www.w3.org/1999/xlink">
    <title>BE12FC0E-FD5E-426C-9BBF-550FC50194C3</title>
    <defs></defs>
    <g id="Main" stroke="none" stroke-width="1" fill="none" fill-rule="evenodd">
        <g id="Popupovi---razmaci" transform="translate(-678.000000, -342.000000)" fill="#D9D9D9">
            <g id="Group-5-Copy-4" transform="translate(618.000000, 241.000000)">
                <g id="Group-4" transform="translate(19.000000, 74.000000)">
                    <g id="Group-16" transform="translate(38.000000, 27.000000)">
                        <path d="M3.99962831,5.97241081 L216.002602,0.190511533 L216.002602,0.190511533 C219.763198,0.0879498169 222.894906,3.05337273 222.997468,6.81396899 C222.999156,6.87585608 223,6.9377633 223,6.9996734 L223,6.9996734 L223,6.9996734 C223,10.761668 219.950301,13.8113671 216.188306,13.8113671 C216.126396,13.8113671 216.064489,13.8105231 216.002602,13.8088353 L3.99962831,8.02693599 L3.99962831,8.02693599 C3.44319453,8.01176053 3,7.55631408 3,6.9996734 L3,6.9996734 L3,6.9996734 C3,6.44303273 3.44319453,5.98758628 3.99962831,5.97241081 Z" id="slider-background"></path>
                    </g>
                </g>
            </g>
        </g>
    </g>
</svg>